<svg width="1920" height="1080" viewBox="0 0 1920 1080" fill="none" xmlns="http://www.w3.org/2000/svg">
<rect x="593" y="595" width="867" height="908" transform="rotate(-180 593 595)" fill="url(#paint0_linear_5807_21572)" fill-opacity="0.11"/>
<rect x="1319" y="489" width="856" height="897" fill="url(#paint1_linear_5807_21572)" fill-opacity="0.09"/>
<path d="M48 0V1095.5" stroke="#1E1E1E"/>
<path d="M108 0V1095.5" stroke="#1E1E1E"/>
<path d="M168 0V1095.5" stroke="#1E1E1E"/>
<path d="M228 0V1095.5" stroke="#1E1E1E"/>
<path d="M288 0V1095.5" stroke="#1E1E1E"/>
<path d="M348 0V1095.5" stroke="#1E1E1E"/>
<path d="M408 0V1095.5" stroke="#1E1E1E"/>
<path d="M468 0V1095.5" stroke="#1E1E1E"/>
<path d="M528 0V1095.5" stroke="#1E1E1E"/>
<path d="M588 0V1095.5" stroke="#1E1E1E"/>
<path d="M648 0V1095.5" stroke="#1E1E1E"/>
<path d="M708 0V1095.5" stroke="#1E1E1E"/>
<path d="M768 0V1095.5" stroke="#1E1E1E"/>
<path d="M828 0V1095.5" stroke="#1E1E1E"/>
<path d="M888 0V1095.5" stroke="#1E1E1E"/>
<path d="M948 0V1095.5" stroke="#1E1E1E"/>
<path d="M1008 0V1095.5" stroke="#1E1E1E"/>
<path d="M1068 0V1095.5" stroke="#1E1E1E"/>
<path d="M1128 0V1095.5" stroke="#1E1E1E"/>
<path d="M1188 0V1095.5" stroke="#1E1E1E"/>
<path d="M1248 0V1095.5" stroke="#1E1E1E"/>
<path d="M1308 0V1095.5" stroke="#1E1E1E"/>
<path d="M1368 0V1095.5" stroke="#1E1E1E"/>
<path d="M1428 0V1095.5" stroke="#1E1E1E"/>
<path d="M1488 0V1095.5" stroke="#1E1E1E"/>
<path d="M1548 0V1095.5" stroke="#1E1E1E"/>
<path d="M1608 0V1095.5" stroke="#1E1E1E"/>
<path d="M1668 0V1095.5" stroke="#1E1E1E"/>
<path d="M1728 0V1095.5" stroke="#1E1E1E"/>
<path d="M1788 0V1095.5" stroke="#1E1E1E"/>
<path d="M1848 0V1095.5" stroke="#1E1E1E"/>
<path d="M1908 0V1095.5" stroke="#1E1E1E"/>
<path d="M-42 1075.75H1983" stroke="#1E1E1E"/>
<path d="M-42 1015.75L1983 1015.75" stroke="#1E1E1E"/>
<path d="M-42 955.75L1983 955.75" stroke="#1E1E1E"/>
<path d="M-42 895.75L1983 895.75" stroke="#1E1E1E"/>
<path d="M-42 835.75L1983 835.75" stroke="#1E1E1E"/>
<path d="M-42 775.75L1983 775.75" stroke="#1E1E1E"/>
<path d="M-42 715.75L1983 715.75" stroke="#1E1E1E"/>
<path d="M-42 655.75L1983 655.75" stroke="#1E1E1E"/>
<path d="M-42 595.75L1983 595.75" stroke="#1E1E1E"/>
<path d="M-42 535.75L1983 535.75" stroke="#1E1E1E"/>
<path d="M-42 475.75L1983 475.75" stroke="#1E1E1E"/>
<path d="M-42 415.75L1983 415.75" stroke="#1E1E1E"/>
<path d="M-42 355.75L1983 355.75" stroke="#1E1E1E"/>
<path d="M-42 295.75L1983 295.75" stroke="#1E1E1E"/>
<path d="M-42 235.75L1983 235.75" stroke="#1E1E1E"/>
<path d="M-42 175.75L1983 175.75" stroke="#1E1E1E"/>
<path d="M-42 115.75L1983 115.75" stroke="#1E1E1E"/>
<path d="M-42 55.75L1983 55.75" stroke="#1E1E1E"/>
<defs>
<linearGradient id="paint0_linear_5807_21572" x1="884.074" y1="931.527" x2="1253.79" y2="1262.72" gradientUnits="userSpaceOnUse">
<stop stop-color="#161916"/>
<stop offset="1" stop-color="#2F8128"/>
</linearGradient>
<linearGradient id="paint1_linear_5807_21572" x1="1606.38" y1="821.45" x2="1971.6" y2="1148.42" gradientUnits="userSpaceOnUse">
<stop stop-color="#161916"/>
<stop offset="1" stop-color="#2F8128"/>
</linearGradient>
</defs>
</svg>
