<svg width="135" height="30" viewBox="0 0 135 30" fill="none" xmlns="http://www.w3.org/2000/svg">
<g opacity="0.8">
<path d="M33.3528 20.6997V9.10771H35.5056V18.8781H41.5666V20.6997H33.3528ZM43.2662 20.6997V9.10771H45.419V20.6997H43.2662ZM53.9695 20.8653C53.0642 20.8653 52.2307 20.7218 51.4689 20.4347C50.7182 20.1367 50.0613 19.7227 49.4983 19.1927C48.9353 18.6518 48.4992 18.017 48.1901 17.2883C47.8809 16.5597 47.7264 15.7648 47.7264 14.9037C47.7264 14.0426 47.8809 13.2477 48.1901 12.5191C48.4992 11.7904 48.9353 11.1611 49.4983 10.6312C50.0724 10.0903 50.7403 9.67627 51.5021 9.38923C52.2638 9.09115 53.0973 8.94211 54.0026 8.94211C54.9852 8.94211 55.8684 9.10219 56.6522 9.42235C57.4471 9.74251 58.115 10.2117 58.656 10.8299L57.2981 12.1547C56.8454 11.7021 56.3541 11.3709 55.8242 11.1611C55.3053 10.9403 54.7313 10.8299 54.102 10.8299C53.4948 10.8299 52.9317 10.9293 52.4129 11.128C51.894 11.3267 51.4469 11.6083 51.0715 11.9726C50.6961 12.3369 50.4036 12.7675 50.1938 13.2643C49.9951 13.7611 49.8957 14.3075 49.8957 14.9037C49.8957 15.4888 49.9951 16.0298 50.1938 16.5266C50.4036 17.0234 50.6961 17.4595 51.0715 17.8348C51.4469 18.1991 51.8885 18.4807 52.3963 18.6794C52.9041 18.8781 53.4672 18.9775 54.0854 18.9775C54.6595 18.9775 55.2115 18.8891 55.7414 18.7125C56.2824 18.5248 56.7957 18.2157 57.2815 17.7851L58.5069 19.3915C57.8997 19.8772 57.1932 20.2471 56.3873 20.501C55.5924 20.7439 54.7865 20.8653 53.9695 20.8653ZM56.4701 19.1099V14.7712H58.5069V19.3915L56.4701 19.1099ZM69.4938 9.10771H71.6466V20.6997H69.4938V9.10771ZM63.4991 20.6997H61.3463V9.10771H63.4991V20.6997ZM69.6594 15.7317H63.317V13.8935H69.6594V15.7317ZM77.1043 20.6997V10.9293H73.2624V9.10771H83.0991V10.9293H79.2571V20.6997H77.1043ZM84.7147 20.6997V9.10771H90.1464C91.5374 9.10771 92.5972 9.38371 93.3259 9.93571C94.0545 10.4767 94.4188 11.2053 94.4188 12.1216C94.4188 12.7399 94.2753 13.2698 93.9883 13.7114C93.7012 14.1419 93.3148 14.4787 92.8291 14.7215C92.3544 14.9534 91.8355 15.0693 91.2724 15.0693L91.5705 14.4731C92.2219 14.4731 92.807 14.5946 93.3259 14.8375C93.8448 15.0693 94.2532 15.4115 94.5513 15.8642C94.8604 16.3168 95.015 16.8799 95.015 17.5533C95.015 18.5469 94.6341 19.3197 93.8724 19.8717C93.1106 20.4237 91.979 20.6997 90.4776 20.6997H84.7147ZM86.8675 19.0106H90.3451C91.151 19.0106 91.7692 18.8781 92.1998 18.6131C92.6304 18.3482 92.8456 17.9231 92.8456 17.338C92.8456 16.7639 92.6304 16.3444 92.1998 16.0795C91.7692 15.8035 91.151 15.6655 90.3451 15.6655H86.7019V13.9929H89.9145C90.6652 13.9929 91.2393 13.8604 91.6368 13.5955C92.0452 13.3305 92.2495 12.9331 92.2495 12.4031C92.2495 11.8622 92.0452 11.4592 91.6368 11.1943C91.2393 10.9293 90.6652 10.7968 89.9145 10.7968H86.8675V19.0106ZM95.6069 20.6997L100.774 9.10771H103.423L108.606 20.6997H105.791L101.552 10.4656H102.612L98.3559 20.6997H95.6069ZM98.1903 18.2157L98.9023 16.1788H104.864L105.593 18.2157H98.1903ZM109.809 20.6997V9.10771H112.028L118.867 17.4539H117.791V9.10771H120.441V20.6997H118.238L111.382 12.3535H112.459V20.6997H109.809ZM125.585 18.0501L125.435 14.9534L130.983 9.10771H133.964L128.963 14.4897L127.472 16.0795L125.585 18.0501ZM123.183 20.6997V9.10771H125.849V20.6997H123.183ZM131.116 20.6997L126.992 15.6489L128.747 13.7445L134.245 20.6997H131.116Z" fill="white"/>
<path d="M10.532 20.2441C10.5843 19.8001 10.6302 19.6885 10.532 18.8713C10.2 16.1095 7.16407 13.9274 6.86551 11.5718C6.50803 8.75658 9.92699 4.535 14.4603 4.4978C18.8954 4.4618 22.4269 8.44818 22.1834 11.2274C21.9726 13.6274 18.8458 15.9021 18.5196 18.7609C18.4266 19.5757 18.4685 19.6837 18.5196 20.1301" stroke="white" stroke-width="1.65886" stroke-linecap="round" stroke-linejoin="round"/>
<path d="M13.3015 9.75009L15.8419 14.1354L12.502 13.3502L15.9067 17.8507" stroke="white" stroke-width="1.36856" stroke-linecap="square" stroke-linejoin="bevel"/>
<path d="M11.207 23.01H17.8374V25.1371H12.3205" stroke="white" stroke-width="1.65886" stroke-linecap="round" stroke-linejoin="round"/>
</g>
</svg>
