<svg width="123" height="42" viewBox="0 0 123 42" fill="none" xmlns="http://www.w3.org/2000/svg">
<g opacity="0.1">
<g clip-path="url(#clip0_5807_21671)">
<path fill-rule="evenodd" clip-rule="evenodd" d="M18.5632 31.6072C15.2804 29.1543 13.1505 25.2337 13.1505 20.8185C13.1505 13.3863 19.1805 7.35628 26.6127 7.35628C32.749 7.35628 39.4495 11.0233 41.0684 16.6405C39.2574 10.3652 33.4726 5.77417 26.6127 5.77417C18.3056 5.77417 11.5684 12.5114 11.5684 20.8185C11.5684 29.1257 18.3056 35.8629 26.6127 35.8629C34.9198 35.8629 41.6571 29.1257 41.6571 20.8185V20.0254H40.8313C40.8068 20.0254 40.77 20.0254 40.7209 20.0254C40.6228 20.0254 40.4838 20.0214 40.3039 20.0132C39.9483 20.0009 39.4577 19.9764 38.9058 19.9273C37.7775 19.8292 36.4897 19.6371 35.6148 19.2855C34.2044 18.7213 33.4072 17.9773 32.4997 17.1024L32.4465 17.0534C31.5349 16.1785 30.5128 15.1933 28.7345 14.3593C26.9848 13.5376 25.0511 13.6684 23.6325 13.9627C22.913 14.1099 22.2916 14.3061 21.8541 14.4656C21.6334 14.5432 21.4576 14.6168 21.3349 14.6659C20.6195 14.9684 19.9245 15.3241 19.2255 15.6552C19.2255 15.6552 20.6032 16.0313 21.2818 16.2439C21.3063 16.2521 21.3431 16.2643 21.3963 16.2807C21.4985 16.3134 21.6456 16.3666 21.8214 16.4401C22.1812 16.5873 22.6513 16.804 23.1174 17.1065C23.8532 17.5766 24.4624 18.1735 24.7117 18.9012C23.1542 19.1056 21.6906 19.7924 20.595 20.4343C19.9327 20.8226 19.3808 21.2151 18.9924 21.5054C18.8003 21.6525 18.6449 21.7752 18.5386 21.861C18.4487 21.9346 17.0424 23.1733 17.0424 23.1733C17.0424 23.1733 18.8575 23.3655 19.7528 23.5453C20.3497 23.6639 21.151 23.8601 21.9931 24.1504C22.8353 24.4447 23.6856 24.829 24.3929 25.3237C25.1001 25.8183 25.6193 26.3866 25.8728 27.0407C26.6168 28.9458 25.885 30.7977 24.4174 31.8402C22.9661 32.8704 20.7626 33.1157 18.5591 31.6031L18.5632 31.6072ZM23.6979 33.9619C24.2907 33.7698 24.8426 33.4877 25.3413 33.1361C27.3363 31.7175 28.387 29.1175 27.3527 26.4684C26.9439 25.4259 26.1671 24.6328 25.3045 24.0277C24.4378 23.4227 23.4444 22.9812 22.5205 22.6582C21.9155 22.4456 21.3268 22.2821 20.8157 22.1595C20.9997 22.0409 21.1919 21.9183 21.4003 21.7956C22.6186 21.0802 24.1558 20.422 25.6275 20.422C27.8474 20.422 29.499 21.1047 31.077 21.8324C31.2201 21.8978 31.3632 21.9673 31.5103 22.0327C32.9207 22.695 34.4007 23.39 36.1218 23.39C37.8429 23.39 39.0898 22.9198 39.9851 22.4293C39.1879 29.1011 33.5094 34.2767 26.6209 34.2767C25.6193 34.2767 24.6422 34.1663 23.7061 33.9619H23.6979ZM38.268 21.4604C37.6753 21.6607 36.9557 21.8079 36.1177 21.8079C34.7686 21.8079 33.6075 21.2682 32.1358 20.5814C32.005 20.5201 31.8742 20.4588 31.7393 20.3975C30.2634 19.7147 28.5587 18.9911 26.3388 18.8603C26.0404 17.3927 24.9284 16.387 23.9718 15.7738C23.8655 15.7043 23.7592 15.6389 23.6529 15.5775C23.7469 15.5571 23.8451 15.5326 23.9473 15.5121C25.2309 15.2464 26.7599 15.181 28.0558 15.7942C29.593 16.5178 30.4638 17.3518 31.3672 18.2185L31.4 18.2471C32.328 19.1383 33.3132 20.0745 35.0261 20.7613C35.9787 21.1415 37.2133 21.3459 38.268 21.4604Z" fill="white"/>
<path d="M51.4004 17.5768V8.68921H53.1011L54.5728 12.2582L56.0445 8.68921H57.7452V17.5768H56.4125V10.7455L54.5605 15.1485L52.7086 10.7455V17.5768H51.4004Z" fill="white"/>
<path d="M59.7656 17.5768L62.5578 8.68921H64.3607L67.1529 17.5768H65.6035L64.9576 15.4306H61.8996L61.266 17.5768H59.7697H59.7656ZM62.243 14.2491H64.6305L63.4368 10.2999L62.243 14.2491Z" fill="white"/>
<path d="M69.332 17.5768V8.68921H70.8692L74.0825 14.9073L74.0579 8.68921H75.3539V17.5768H73.9435L70.6034 11.1544L70.628 17.5768H69.332Z" fill="white"/>
<path d="M80.4683 17.5768V9.98515H77.7129V8.68921H84.7445V9.98515H81.9891V17.5768H80.4642H80.4683Z" fill="white"/>
<path d="M86.4199 17.5768L89.2121 8.68921H91.015L93.8072 17.5768H92.2578L91.6119 15.4306H88.5539L87.9203 17.5768H86.424H86.4199ZM88.8933 14.2491H91.2807L90.087 10.2999L88.8933 14.2491Z" fill="white"/>
<path d="M51.5645 32.8085V23.9209H53.1016L56.3149 30.139L56.2903 23.9209H57.5863V32.8085H56.1759L52.8359 26.386L52.8604 32.8085H51.5645Z" fill="white"/>
<path d="M60.756 32.8085V23.9209H66.5694V25.2168H62.2768V27.6943H65.0568V28.9616H62.2768V31.5126H66.6184V32.8085H60.752H60.756Z" fill="white"/>
<path d="M71.5796 32.8085V25.2168H68.8242V23.9209H75.8558V25.2168H73.1004V32.8085H71.5755H71.5796Z" fill="white"/>
<path d="M78.6831 32.8085L77.6406 23.9209H78.9856L79.5457 29.7874L80.6863 23.9209H81.8269L82.9675 29.7342L83.5276 23.9209H84.8235L83.7933 32.8085H82.4238L81.2423 26.5373L80.0485 32.8085H78.679H78.6831Z" fill="white"/>
<path d="M90.1145 32.9482C89.489 32.9482 88.9125 32.7683 88.3893 32.4168C87.866 32.0611 87.4449 31.5419 87.1342 30.8633C86.8194 30.1805 86.6641 29.3506 86.6641 28.3695C86.6641 27.3883 86.8194 26.5544 87.1342 25.8757C87.449 25.193 87.866 24.6779 88.3893 24.3222C88.9125 23.9666 89.489 23.7908 90.1145 23.7908C90.7399 23.7908 91.3123 23.9706 91.8356 24.3222C92.3548 24.6779 92.7758 25.1971 93.0906 25.8757C93.4095 26.5584 93.5649 27.3883 93.5649 28.3695C93.5649 29.3506 93.4054 30.1846 93.0906 30.8633C92.7718 31.546 92.3548 32.0611 91.8356 32.4168C91.3164 32.7724 90.7399 32.9482 90.1145 32.9482ZM90.1145 31.5787C90.4701 31.5787 90.7931 31.4601 91.0874 31.2148C91.3777 30.9736 91.6107 30.6139 91.7783 30.1356C91.9459 29.6573 92.0318 29.0686 92.0318 28.3654C92.0318 27.6622 91.9459 27.0736 91.7783 26.5993C91.6107 26.1251 91.3777 25.7653 91.0874 25.5201C90.7972 25.2748 90.4701 25.1521 90.1145 25.1521C89.7588 25.1521 89.4358 25.2748 89.1415 25.5201C88.8512 25.7653 88.6182 26.1251 88.4506 26.5993C88.283 27.0736 88.1971 27.6622 88.1971 28.3654C88.1971 29.0686 88.283 29.6573 88.4506 30.1356C88.6182 30.6139 88.8512 30.9736 89.1415 31.2148C89.4317 31.456 89.7588 31.5787 90.1145 31.5787Z" fill="white"/>
<path d="M96.2306 32.8085V23.9209H99.2518C99.8446 23.9209 100.364 24.0313 100.805 24.2561C101.251 24.481 101.594 24.7917 101.848 25.1964C102.097 25.597 102.224 26.0672 102.224 26.5986C102.224 27.1832 102.073 27.6861 101.766 28.1072C101.459 28.5323 101.046 28.8389 100.523 29.0352L102.465 32.8044H100.826L99.0596 29.2518H97.7514V32.8044H96.2266L96.2306 32.8085ZM97.7514 28.0336H99.121C99.5952 28.0336 99.9713 27.9028 100.257 27.6452C100.54 27.3876 100.683 27.0483 100.683 26.6232C100.683 26.198 100.54 25.8464 100.257 25.5889C99.9754 25.3313 99.5952 25.2005 99.121 25.2005H97.7514V28.0295V28.0336Z" fill="white"/>
<path d="M104.981 32.8085V23.9209H106.506V27.8946L109.69 23.9209H111.428L107.846 28.2257L111.591 32.8085H109.674L106.501 28.7449V32.8085H104.977H104.981Z" fill="white"/>
</g>
</g>
<defs>
<clipPath id="clip0_5807_21671">
<rect width="100.021" height="30.0887" fill="white" transform="translate(11.5684 5.77466)"/>
</clipPath>
</defs>
</svg>
