<svg width="46" height="45" viewBox="0 0 46 45" fill="none" xmlns="http://www.w3.org/2000/svg">
<rect x="0.40625" width="45" height="45" rx="22.5" fill="white" fill-opacity="0.2"/>
<path fill-rule="evenodd" clip-rule="evenodd" d="M7.92067 21.5929C16.1233 18.0462 21.6063 15.7538 24.3697 14.6292C32.1775 11.4285 33.8005 10.8663 34.8532 10.823C35.0725 10.823 35.5989 10.8663 35.9498 11.1258C36.213 11.342 36.3007 11.6448 36.3446 11.8611C36.3885 12.0773 36.4323 12.5531 36.3885 12.9424C35.9498 17.3109 34.1514 27.9943 33.1864 32.8818C32.7916 34.9579 32.0021 35.65 31.2564 35.7365C29.6334 35.8662 28.3613 34.6552 26.7822 33.6603C24.3258 32.06 22.9222 31.0652 20.5097 29.5081C17.7462 27.6915 19.5447 26.6967 21.1238 25.0963C21.5185 24.6638 28.7561 18.2192 28.8877 17.6136C28.8877 17.5271 28.9316 17.2676 28.7561 17.1379C28.5807 17.0081 28.3613 17.0514 28.1859 17.0946C27.9227 17.1379 23.9749 19.733 16.2987 24.8368C15.1582 25.6154 14.1494 25.9614 13.2282 25.9614C12.2194 25.9614 10.2893 25.3991 8.84182 24.9233C7.08725 24.361 5.6836 24.0583 5.8152 23.1067C5.90292 22.6309 6.60475 22.1119 7.92067 21.5929Z" fill="white"/>
</svg>
