<svg width="46" height="45" viewBox="0 0 46 45" fill="none" xmlns="http://www.w3.org/2000/svg">
<rect x="0.207031" width="45.5625" height="45" rx="22.5" fill="white" fill-opacity="0.2"/>
<path d="M34.2507 17.7512C34.2677 17.9953 34.2677 18.2394 34.2677 18.4858C34.2677 25.9924 28.5098 34.6499 17.9811 34.6499V34.6454C14.8709 34.6499 11.8253 33.7657 9.20703 32.0986C9.65928 32.1526 10.1138 32.1796 10.5694 32.1807C13.1469 32.1829 15.6507 31.3246 17.6785 29.7441C15.2291 29.698 13.0812 28.1129 12.3308 25.799C13.1889 25.9632 14.073 25.9295 14.9151 25.7011C12.2447 25.1656 10.3235 22.837 10.3235 20.1327C10.3235 20.1079 10.3235 20.0843 10.3235 20.0607C11.1192 20.5005 12.0101 20.7447 12.9214 20.7717C10.4062 19.1034 9.63094 15.7826 11.1498 13.1863C14.056 16.7354 18.3438 18.893 22.9468 19.1214C22.4855 17.1483 23.1157 15.0806 24.6028 13.6936C26.9082 11.5427 30.5341 11.653 32.7013 13.94C33.9832 13.6891 35.2119 13.2223 36.3363 12.5608C35.909 13.8758 35.0147 14.9929 33.82 15.7027C34.9546 15.57 36.0631 15.2685 37.107 14.8084C36.3385 15.9513 35.3706 16.9469 34.2507 17.7512Z" fill="white"/>
</svg>
