<svg xmlns="http://www.w3.org/2000/svg" width="34" height="33" viewBox="0 0 34 33" fill="none">
  <mask id="mask0_6134_20794" style="mask-type:alpha" maskUnits="userSpaceOnUse" x="0" y="0" width="34" height="33">
    <rect x="0.798828" y="0.586426" width="32.4" height="32.4" fill="#D9D9D9"/>
  </mask>
  <g mask="url(#mask0_6134_20794)">
    <path d="M16.998 16.3713C15.6987 16.3713 14.5863 15.9086 13.661 14.9834C12.7357 14.058 12.273 12.9457 12.273 11.6464C12.273 10.347 12.7357 9.23465 13.661 8.30936C14.5863 7.38404 15.6987 6.92139 16.998 6.92139C18.2974 6.92139 19.4097 7.38404 20.335 8.30936C21.2603 9.23465 21.723 10.347 21.723 11.6464C21.723 12.9457 21.2603 14.058 20.335 14.9834C19.4097 15.9086 18.2974 16.3713 16.998 16.3713ZM6.87305 24.6011V23.6509C6.87305 22.9898 7.05262 22.3775 7.41176 21.8142C7.77089 21.2508 8.25073 20.8177 8.8513 20.5148C10.1857 19.8606 11.5318 19.3699 12.8896 19.0428C14.2474 18.7157 15.6169 18.5521 16.998 18.5521C18.3792 18.5521 19.7486 18.7157 21.1064 19.0428C22.4642 19.3699 23.8103 19.8606 25.1447 20.5148C25.7453 20.8177 26.2251 21.2508 26.5843 21.8142C26.9434 22.3775 27.123 22.9898 27.123 23.6509V24.6011C27.123 25.1705 26.9235 25.6547 26.5246 26.0536C26.1256 26.4526 25.6415 26.652 25.0721 26.652H8.92397C8.35456 26.652 7.87039 26.4526 7.47147 26.0536C7.07252 25.6547 6.87305 25.1705 6.87305 24.6011ZM8.89801 24.6271H25.098V23.6509C25.098 23.3775 25.0188 23.1243 24.8604 22.8916C24.7021 22.6588 24.487 22.4688 24.2153 22.3217C23.0522 21.7488 21.8663 21.3148 20.6575 21.0197C19.4486 20.7246 18.2288 20.5771 16.998 20.5771C15.7672 20.5771 14.5474 20.7246 13.3386 21.0197C12.1297 21.3148 10.9438 21.7488 9.78071 22.3217C9.50898 22.4688 9.29393 22.6588 9.13558 22.8916C8.9772 23.1243 8.89801 23.3775 8.89801 23.6509V24.6271ZM16.998 14.3464C17.7405 14.3464 18.3761 14.082 18.9049 13.5532C19.4336 13.0245 19.698 12.3889 19.698 11.6464C19.698 10.9039 19.4336 10.2682 18.9049 9.73948C18.3761 9.21073 17.7405 8.94635 16.998 8.94635C16.2555 8.94635 15.6199 9.21073 15.0911 9.73948C14.5624 10.2682 14.298 10.9039 14.298 11.6464C14.298 12.3889 14.5624 13.0245 15.0911 13.5532C15.6199 14.082 16.2555 14.3464 16.998 14.3464Z" fill="#525C52"/>
  </g>
</svg>