<svg width="25" height="26" viewBox="0 0 25 26" fill="none" xmlns="http://www.w3.org/2000/svg">
<path fill-rule="evenodd" clip-rule="evenodd" d="M25 13C25 19.9036 19.4036 25.5 12.5 25.5C5.59644 25.5 0 19.9036 0 13C0 6.09644 5.59644 0.5 12.5 0.5C19.4036 0.5 25 6.09644 25 13ZM7.20312 12.0263H17.3726V9.39844H7.20312V12.0263ZM7.20312 17.4067V14.8075C7.92497 14.0405 8.83789 13.6464 9.83573 13.6357C10.7013 13.641 11.5012 13.9413 12.3021 14.2418C13.1121 14.5458 13.923 14.8501 14.8037 14.8501C15.7909 14.8501 16.672 14.456 17.3726 13.6784V16.2775C16.6508 17.0445 15.7379 17.4493 14.74 17.4493C13.866 17.4493 13.0561 17.1459 12.2461 16.8424C11.4426 16.5414 10.6389 16.2402 9.77204 16.2349C8.78481 16.2456 7.90374 16.6397 7.20312 17.4067Z" fill="url(#paint0_linear_5606_24188)"/>
<defs>
<linearGradient id="paint0_linear_5606_24188" x1="0" y1="13" x2="25" y2="13" gradientUnits="userSpaceOnUse">
<stop stop-color="#567554"/>
<stop offset="1" stop-color="#6EC568"/>
</linearGradient>
</defs>
</svg>
