<svg xmlns="http://www.w3.org/2000/svg" width="20" height="20" viewBox="0 0 20 20" fill="none">
  <mask id="mask0_5606_24204" style="mask-type:alpha" maskUnits="userSpaceOnUse" x="0" y="0" width="20" height="20">
    <rect width="20" height="20" fill="#D9D9D9"/>
  </mask>
  <g mask="url(#mask0_5606_24204)">
    <path d="M3.33203 16.6667V4.16667C3.33203 3.70833 3.49523 3.31597 3.82161 2.98958C4.148 2.66319 4.54036 2.5 4.9987 2.5H9.9987C10.457 2.5 10.8494 2.66319 11.1758 2.98958C11.5022 3.31597 11.6654 3.70833 11.6654 4.16667V10H12.4987C12.957 10 13.3494 10.1632 13.6758 10.4896C14.0022 10.816 14.1654 11.2083 14.1654 11.6667V15.4167C14.1654 15.6528 14.2452 15.8507 14.4049 16.0104C14.5647 16.1701 14.7626 16.25 14.9987 16.25C15.2348 16.25 15.4327 16.1701 15.5924 16.0104C15.7522 15.8507 15.832 15.6528 15.832 15.4167V9.41667C15.707 9.48611 15.5751 9.53125 15.4362 9.55208C15.2973 9.57292 15.1515 9.58333 14.9987 9.58333C14.4154 9.58333 13.9223 9.38194 13.5195 8.97917C13.1168 8.57639 12.9154 8.08333 12.9154 7.5C12.9154 7.05555 13.0369 6.65625 13.2799 6.30208C13.523 5.94792 13.8459 5.69444 14.2487 5.54167L12.9362 4.22917C12.8112 4.10417 12.7487 3.95833 12.7487 3.79167C12.7487 3.625 12.8112 3.47917 12.9362 3.35417C13.0473 3.24306 13.1897 3.18403 13.3633 3.17708C13.5369 3.17014 13.6862 3.22222 13.8112 3.33333L16.457 5.91667C16.6654 6.125 16.8216 6.36806 16.9258 6.64583C17.0299 6.92361 17.082 7.20833 17.082 7.5V15.4167C17.082 16 16.8806 16.4931 16.4779 16.8958C16.0751 17.2986 15.582 17.5 14.9987 17.5C14.4154 17.5 13.9223 17.2986 13.5195 16.8958C13.1168 16.4931 12.9154 16 12.9154 15.4167V11.25H11.6654V16.6667C11.6654 16.9028 11.5855 17.1007 11.4258 17.2604C11.2661 17.4201 11.0681 17.5 10.832 17.5H4.16536C3.92925 17.5 3.73134 17.4201 3.57161 17.2604C3.41189 17.1007 3.33203 16.9028 3.33203 16.6667ZM4.9987 8.33333H9.9987V4.16667H4.9987V8.33333ZM14.9987 8.33333C15.2348 8.33333 15.4327 8.25347 15.5924 8.09375C15.7522 7.93403 15.832 7.73611 15.832 7.5C15.832 7.26389 15.7522 7.06597 15.5924 6.90625C15.4327 6.74653 15.2348 6.66667 14.9987 6.66667C14.7626 6.66667 14.5647 6.74653 14.4049 6.90625C14.2452 7.06597 14.1654 7.26389 14.1654 7.5C14.1654 7.73611 14.2452 7.93403 14.4049 8.09375C14.5647 8.25347 14.7626 8.33333 14.9987 8.33333ZM4.9987 15.8333H9.9987V10H4.9987V15.8333Z" fill="#535353"/>
    <path d="M3.33203 16.6667V4.16667C3.33203 3.70833 3.49523 3.31597 3.82161 2.98958C4.148 2.66319 4.54036 2.5 4.9987 2.5H9.9987C10.457 2.5 10.8494 2.66319 11.1758 2.98958C11.5022 3.31597 11.6654 3.70833 11.6654 4.16667V10H12.4987C12.957 10 13.3494 10.1632 13.6758 10.4896C14.0022 10.816 14.1654 11.2083 14.1654 11.6667V15.4167C14.1654 15.6528 14.2452 15.8507 14.4049 16.0104C14.5647 16.1701 14.7626 16.25 14.9987 16.25C15.2348 16.25 15.4327 16.1701 15.5924 16.0104C15.7522 15.8507 15.832 15.6528 15.832 15.4167V9.41667C15.707 9.48611 15.5751 9.53125 15.4362 9.55208C15.2973 9.57292 15.1515 9.58333 14.9987 9.58333C14.4154 9.58333 13.9223 9.38194 13.5195 8.97917C13.1168 8.57639 12.9154 8.08333 12.9154 7.5C12.9154 7.05555 13.0369 6.65625 13.2799 6.30208C13.523 5.94792 13.8459 5.69444 14.2487 5.54167L12.9362 4.22917C12.8112 4.10417 12.7487 3.95833 12.7487 3.79167C12.7487 3.625 12.8112 3.47917 12.9362 3.35417C13.0473 3.24306 13.1897 3.18403 13.3633 3.17708C13.5369 3.17014 13.6862 3.22222 13.8112 3.33333L16.457 5.91667C16.6654 6.125 16.8216 6.36806 16.9258 6.64583C17.0299 6.92361 17.082 7.20833 17.082 7.5V15.4167C17.082 16 16.8806 16.4931 16.4779 16.8958C16.0751 17.2986 15.582 17.5 14.9987 17.5C14.4154 17.5 13.9223 17.2986 13.5195 16.8958C13.1168 16.4931 12.9154 16 12.9154 15.4167V11.25H11.6654V16.6667C11.6654 16.9028 11.5855 17.1007 11.4258 17.2604C11.2661 17.4201 11.0681 17.5 10.832 17.5H4.16536C3.92925 17.5 3.73134 17.4201 3.57161 17.2604C3.41189 17.1007 3.33203 16.9028 3.33203 16.6667ZM4.9987 8.33333H9.9987V4.16667H4.9987V8.33333ZM14.9987 8.33333C15.2348 8.33333 15.4327 8.25347 15.5924 8.09375C15.7522 7.93403 15.832 7.73611 15.832 7.5C15.832 7.26389 15.7522 7.06597 15.5924 6.90625C15.4327 6.74653 15.2348 6.66667 14.9987 6.66667C14.7626 6.66667 14.5647 6.74653 14.4049 6.90625C14.2452 7.06597 14.1654 7.26389 14.1654 7.5C14.1654 7.73611 14.2452 7.93403 14.4049 8.09375C14.5647 8.25347 14.7626 8.33333 14.9987 8.33333ZM4.9987 15.8333H9.9987V10H4.9987V15.8333Z" fill="#535353"/>
    <path d="M3.33203 16.6667V4.16667C3.33203 3.70833 3.49523 3.31597 3.82161 2.98958C4.148 2.66319 4.54036 2.5 4.9987 2.5H9.9987C10.457 2.5 10.8494 2.66319 11.1758 2.98958C11.5022 3.31597 11.6654 3.70833 11.6654 4.16667V10H12.4987C12.957 10 13.3494 10.1632 13.6758 10.4896C14.0022 10.816 14.1654 11.2083 14.1654 11.6667V15.4167C14.1654 15.6528 14.2452 15.8507 14.4049 16.0104C14.5647 16.1701 14.7626 16.25 14.9987 16.25C15.2348 16.25 15.4327 16.1701 15.5924 16.0104C15.7522 15.8507 15.832 15.6528 15.832 15.4167V9.41667C15.707 9.48611 15.5751 9.53125 15.4362 9.55208C15.2973 9.57292 15.1515 9.58333 14.9987 9.58333C14.4154 9.58333 13.9223 9.38194 13.5195 8.97917C13.1168 8.57639 12.9154 8.08333 12.9154 7.5C12.9154 7.05555 13.0369 6.65625 13.2799 6.30208C13.523 5.94792 13.8459 5.69444 14.2487 5.54167L12.9362 4.22917C12.8112 4.10417 12.7487 3.95833 12.7487 3.79167C12.7487 3.625 12.8112 3.47917 12.9362 3.35417C13.0473 3.24306 13.1897 3.18403 13.3633 3.17708C13.5369 3.17014 13.6862 3.22222 13.8112 3.33333L16.457 5.91667C16.6654 6.125 16.8216 6.36806 16.9258 6.64583C17.0299 6.92361 17.082 7.20833 17.082 7.5V15.4167C17.082 16 16.8806 16.4931 16.4779 16.8958C16.0751 17.2986 15.582 17.5 14.9987 17.5C14.4154 17.5 13.9223 17.2986 13.5195 16.8958C13.1168 16.4931 12.9154 16 12.9154 15.4167V11.25H11.6654V16.6667C11.6654 16.9028 11.5855 17.1007 11.4258 17.2604C11.2661 17.4201 11.0681 17.5 10.832 17.5H4.16536C3.92925 17.5 3.73134 17.4201 3.57161 17.2604C3.41189 17.1007 3.33203 16.9028 3.33203 16.6667ZM4.9987 8.33333H9.9987V4.16667H4.9987V8.33333ZM14.9987 8.33333C15.2348 8.33333 15.4327 8.25347 15.5924 8.09375C15.7522 7.93403 15.832 7.73611 15.832 7.5C15.832 7.26389 15.7522 7.06597 15.5924 6.90625C15.4327 6.74653 15.2348 6.66667 14.9987 6.66667C14.7626 6.66667 14.5647 6.74653 14.4049 6.90625C14.2452 7.06597 14.1654 7.26389 14.1654 7.5C14.1654 7.73611 14.2452 7.93403 14.4049 8.09375C14.5647 8.25347 14.7626 8.33333 14.9987 8.33333ZM4.9987 15.8333H9.9987V10H4.9987V15.8333Z" fill="#535353"/>
    <path d="M3.33203 16.6667V4.16667C3.33203 3.70833 3.49523 3.31597 3.82161 2.98958C4.148 2.66319 4.54036 2.5 4.9987 2.5H9.9987C10.457 2.5 10.8494 2.66319 11.1758 2.98958C11.5022 3.31597 11.6654 3.70833 11.6654 4.16667V10H12.4987C12.957 10 13.3494 10.1632 13.6758 10.4896C14.0022 10.816 14.1654 11.2083 14.1654 11.6667V15.4167C14.1654 15.6528 14.2452 15.8507 14.4049 16.0104C14.5647 16.1701 14.7626 16.25 14.9987 16.25C15.2348 16.25 15.4327 16.1701 15.5924 16.0104C15.7522 15.8507 15.832 15.6528 15.832 15.4167V9.41667C15.707 9.48611 15.5751 9.53125 15.4362 9.55208C15.2973 9.57292 15.1515 9.58333 14.9987 9.58333C14.4154 9.58333 13.9223 9.38194 13.5195 8.97917C13.1168 8.57639 12.9154 8.08333 12.9154 7.5C12.9154 7.05555 13.0369 6.65625 13.2799 6.30208C13.523 5.94792 13.8459 5.69444 14.2487 5.54167L12.9362 4.22917C12.8112 4.10417 12.7487 3.95833 12.7487 3.79167C12.7487 3.625 12.8112 3.47917 12.9362 3.35417C13.0473 3.24306 13.1897 3.18403 13.3633 3.17708C13.5369 3.17014 13.6862 3.22222 13.8112 3.33333L16.457 5.91667C16.6654 6.125 16.8216 6.36806 16.9258 6.64583C17.0299 6.92361 17.082 7.20833 17.082 7.5V15.4167C17.082 16 16.8806 16.4931 16.4779 16.8958C16.0751 17.2986 15.582 17.5 14.9987 17.5C14.4154 17.5 13.9223 17.2986 13.5195 16.8958C13.1168 16.4931 12.9154 16 12.9154 15.4167V11.25H11.6654V16.6667C11.6654 16.9028 11.5855 17.1007 11.4258 17.2604C11.2661 17.4201 11.0681 17.5 10.832 17.5H4.16536C3.92925 17.5 3.73134 17.4201 3.57161 17.2604C3.41189 17.1007 3.33203 16.9028 3.33203 16.6667ZM4.9987 8.33333H9.9987V4.16667H4.9987V8.33333ZM14.9987 8.33333C15.2348 8.33333 15.4327 8.25347 15.5924 8.09375C15.7522 7.93403 15.832 7.73611 15.832 7.5C15.832 7.26389 15.7522 7.06597 15.5924 6.90625C15.4327 6.74653 15.2348 6.66667 14.9987 6.66667C14.7626 6.66667 14.5647 6.74653 14.4049 6.90625C14.2452 7.06597 14.1654 7.26389 14.1654 7.5C14.1654 7.73611 14.2452 7.93403 14.4049 8.09375C14.5647 8.25347 14.7626 8.33333 14.9987 8.33333ZM4.9987 15.8333H9.9987V10H4.9987V15.8333Z" fill="#535353"/>
    <path d="M3.33203 16.6667V4.16667C3.33203 3.70833 3.49523 3.31597 3.82161 2.98958C4.148 2.66319 4.54036 2.5 4.9987 2.5H9.9987C10.457 2.5 10.8494 2.66319 11.1758 2.98958C11.5022 3.31597 11.6654 3.70833 11.6654 4.16667V10H12.4987C12.957 10 13.3494 10.1632 13.6758 10.4896C14.0022 10.816 14.1654 11.2083 14.1654 11.6667V15.4167C14.1654 15.6528 14.2452 15.8507 14.4049 16.0104C14.5647 16.1701 14.7626 16.25 14.9987 16.25C15.2348 16.25 15.4327 16.1701 15.5924 16.0104C15.7522 15.8507 15.832 15.6528 15.832 15.4167V9.41667C15.707 9.48611 15.5751 9.53125 15.4362 9.55208C15.2973 9.57292 15.1515 9.58333 14.9987 9.58333C14.4154 9.58333 13.9223 9.38194 13.5195 8.97917C13.1168 8.57639 12.9154 8.08333 12.9154 7.5C12.9154 7.05555 13.0369 6.65625 13.2799 6.30208C13.523 5.94792 13.8459 5.69444 14.2487 5.54167L12.9362 4.22917C12.8112 4.10417 12.7487 3.95833 12.7487 3.79167C12.7487 3.625 12.8112 3.47917 12.9362 3.35417C13.0473 3.24306 13.1897 3.18403 13.3633 3.17708C13.5369 3.17014 13.6862 3.22222 13.8112 3.33333L16.457 5.91667C16.6654 6.125 16.8216 6.36806 16.9258 6.64583C17.0299 6.92361 17.082 7.20833 17.082 7.5V15.4167C17.082 16 16.8806 16.4931 16.4779 16.8958C16.0751 17.2986 15.582 17.5 14.9987 17.5C14.4154 17.5 13.9223 17.2986 13.5195 16.8958C13.1168 16.4931 12.9154 16 12.9154 15.4167V11.25H11.6654V16.6667C11.6654 16.9028 11.5855 17.1007 11.4258 17.2604C11.2661 17.4201 11.0681 17.5 10.832 17.5H4.16536C3.92925 17.5 3.73134 17.4201 3.57161 17.2604C3.41189 17.1007 3.33203 16.9028 3.33203 16.6667ZM4.9987 8.33333H9.9987V4.16667H4.9987V8.33333ZM14.9987 8.33333C15.2348 8.33333 15.4327 8.25347 15.5924 8.09375C15.7522 7.93403 15.832 7.73611 15.832 7.5C15.832 7.26389 15.7522 7.06597 15.5924 6.90625C15.4327 6.74653 15.2348 6.66667 14.9987 6.66667C14.7626 6.66667 14.5647 6.74653 14.4049 6.90625C14.2452 7.06597 14.1654 7.26389 14.1654 7.5C14.1654 7.73611 14.2452 7.93403 14.4049 8.09375C14.5647 8.25347 14.7626 8.33333 14.9987 8.33333ZM4.9987 15.8333H9.9987V10H4.9987V15.8333Z" fill="#535353"/>
  </g>
</svg>