<svg width="47" height="45" viewBox="0 0 47 45" fill="none" xmlns="http://www.w3.org/2000/svg">
<rect x="0.568359" width="45.5625" height="45" rx="22.5" fill="white" fill-opacity="0.2"/>
<path d="M24.7563 22.0503C24.7563 27.2693 20.9282 31.5001 16.2064 31.5001C11.4846 31.5001 7.65625 27.2693 7.65625 22.0503C7.65625 16.8312 11.4843 12.6001 16.2064 12.6001C20.9285 12.6001 24.7563 16.8312 24.7563 22.0503Z" fill="#F1F1F1"/>
<path d="M34.6562 22.0501C34.6562 27.2683 32.6415 31.5001 30.1563 31.5001C27.671 31.5001 25.6562 27.2683 25.6562 22.0501C25.6562 16.8319 27.6707 12.6001 30.1559 12.6001C32.6412 12.6001 34.6562 16.8306 34.6562 22.0501Z" fill="#F1F1F1"/>
<path d="M39.1566 22.0501C39.1566 26.274 38.3508 29.7001 37.3565 29.7001C36.3621 29.7001 35.5566 26.2749 35.5566 22.0501C35.5566 17.8254 36.3625 14.4001 37.3565 14.4001C38.3505 14.4001 39.1566 17.8251 39.1566 22.0501Z" fill="#F1F1F1"/>
</svg>
