<svg xmlns="http://www.w3.org/2000/svg" width="15" height="16" viewBox="0 0 15 16" fill="none">
  <g opacity="0.5" clip-path="url(#clip0_6314_16669)">
    <path d="M7.2 0.799805C11.1764 0.799805 14.4 4.02335 14.4 7.9998C14.4 11.9763 11.1764 15.1998 7.2 15.1998C3.22355 15.1998 0 11.9763 0 7.9998C0 4.02335 3.22355 0.799805 7.2 0.799805ZM7.2 1.6998C3.72061 1.6998 0.9 4.52041 0.9 7.9998C0.9 11.4792 3.72061 14.2998 7.2 14.2998C10.6794 14.2998 13.5 11.4792 13.5 7.9998C13.5 4.52041 10.6794 1.6998 7.2 1.6998ZM7.785 10.0248V11.1948H6.615V10.0248H7.785ZM7.2 4.8498C8.19411 4.8498 9 5.65569 9 6.6498C9 7.48842 8.4265 8.1931 7.6503 8.39302L7.65 9.3498H6.75V7.5498H7.2C7.69706 7.5498 8.1 7.14686 8.1 6.6498C8.1 6.15275 7.69706 5.7498 7.2 5.7498C6.72554 5.7498 6.33683 6.11695 6.30247 6.58264L6.3 6.6498H5.4C5.4 5.65569 6.20589 4.8498 7.2 4.8498Z" fill="url(#paint0_linear_6314_16669)"/>
  </g>
  <defs>
    <linearGradient id="paint0_linear_6314_16669" x1="1.01871" y1="0.394957" x2="8.8112" y2="16.7712" gradientUnits="userSpaceOnUse">
      <stop stop-color="#CDD9C9"/>
      <stop offset="1" stop-color="#B4FF9B"/>
    </linearGradient>
    <clipPath id="clip0_6314_16669">
      <rect width="14.4" height="14.4" fill="white" transform="translate(0 0.799805)"/>
    </clipPath>
  </defs>
</svg>